<?xml version="1.0" encoding="UTF-8" standalone="no"?>
<!-- Created with Inkscape (http://www.inkscape.org/) -->

<svg
   xmlns:dc="http://purl.org/dc/elements/1.1/"
   xmlns:cc="http://creativecommons.org/ns#"
   xmlns:rdf="http://www.w3.org/1999/02/22-rdf-syntax-ns#"
   xmlns:svg="http://www.w3.org/2000/svg"
   xmlns="http://www.w3.org/2000/svg"
   xmlns:sodipodi="http://sodipodi.sourceforge.net/DTD/sodipodi-0.dtd"
   xmlns:inkscape="http://www.inkscape.org/namespaces/inkscape"
   width="744.09448"
   height="1052.3622"
   id="svg2"
   version="1.1"
   inkscape:version="0.48.4 r9939"
   sodipodi:docname="print.svg">
  <defs
     id="defs4" />
  <sodipodi:namedview
     id="base"
     pagecolor="#ffffff"
     bordercolor="#ff0057"
     borderopacity="1"
     inkscape:pageopacity="0.0"
     inkscape:pageshadow="2"
     inkscape:zoom="0.5"
     inkscape:cx="-178.22229"
     inkscape:cy="1013.0809"
     inkscape:document-units="mm"
     inkscape:current-layer="layer1"
     showgrid="true"
     inkscape:window-width="1914"
     inkscape:window-height="1054"
     inkscape:window-x="0"
     inkscape:window-y="20"
     inkscape:window-maximized="0"
     units="mm"
     inkscape:snap-object-midpoints="true"
     inkscape:snap-nodes="true"
     inkscape:snap-to-guides="false"
     borderlayer="true"
     inkscape:showpageshadow="false"
     inkscape:snap-page="true"
     inkscape:snap-grids="true"
     inkscape:snap-bbox="false"
     inkscape:bbox-nodes="false"
     inkscape:snap-bbox-midpoints="true">
    <inkscape:grid
       type="xygrid"
       id="grid3155"
       empspacing="13"
       visible="true"
       enabled="false"
       snapvisiblegridlinesonly="true"
       units="in"
       spacingx="0.025in"
       spacingy="0.025in"
       empcolor="#cacaff"
       empopacity="0.22352941"
       dotted="false"
       color="#ffffff"
       opacity="0.11764706" />
    <inkscape:grid
       type="xygrid"
       id="grid4038"
       units="in"
       empspacing="26"
       visible="true"
       enabled="true"
       snapvisiblegridlinesonly="true"
       spacingx="0.0125in"
       spacingy="0.0125in"
       color="#8989ff"
       opacity="0.1254902"
       empcolor="#dbdbff"
       empopacity="0.25098039" />
  </sodipodi:namedview>
  <metadata
     id="metadata7">
    <rdf:RDF>
      <cc:Work
         rdf:about="">
        <dc:format>image/svg+xml</dc:format>
        <dc:type
           rdf:resource="http://purl.org/dc/dcmitype/StillImage" />
        <dc:title />
      </cc:Work>
    </rdf:RDF>
  </metadata>
  <g
     inkscape:label="Layer 1"
     inkscape:groupmode="layer"
     id="layer1"
     transform="translate(0,1.8472441e-4)">
    <g
       id="g4043"
       transform="translate(4.1270142,-598.5)">
      <rect
         y="658.28284"
         x="224.46759"
         height="292.49884"
         width="286.90527"
         id="rect5930"
         style="fill:#000000;fill-opacity:1;stroke:none" />
      <rect
         y="722.737"
         x="343.12503"
         height="15.75"
         width="15.75"
         id="rect5102-7-2-4-6-2-8"
         style="fill:#ffffff;fill-opacity:1;stroke:none"
         ry="2.1897638" />
      <rect
         y="722.737"
         x="372.37503"
         height="15.75"
         width="15.75"
         id="rect5102-4-93-9-3-0-3-1"
         style="fill:#ffffff;fill-opacity:1;stroke:none"
         ry="2.1897638" />
      <rect
         y="722.737"
         x="401.62503"
         height="15.75"
         width="15.75"
         id="rect5102-4-0-35-3-0-8-2-4"
         style="fill:#ffffff;fill-opacity:1;stroke:none"
         ry="2.1897638" />
      <rect
         y="722.737"
         x="430.87503"
         height="15.75"
         width="15.75"
         id="rect5102-4-9-6-3-8-5-4-2"
         style="fill:#ffffff;fill-opacity:1;stroke:none"
         ry="2.1897638" />
      <rect
         y="751.987"
         x="343.12503"
         height="15.75"
         width="15.75"
         id="rect5102-42-6-3-2-6-8-08"
         style="fill:#ffffff;fill-opacity:1;stroke:none"
         ry="2.1897638" />
      <rect
         y="751.987"
         x="372.37503"
         height="15.75"
         width="15.75"
         id="rect5102-4-08-0-5-8-4-7-5"
         style="fill:#ffffff;fill-opacity:1;stroke:none"
         ry="2.1897638" />
      <rect
         y="751.987"
         x="401.62503"
         height="15.75"
         width="15.75"
         id="rect5102-4-0-8-4-2-7-1-0-2"
         style="fill:#ffffff;fill-opacity:1;stroke:none"
         ry="2.1897638" />
      <rect
         y="751.987"
         x="430.87503"
         height="15.75"
         width="15.75"
         id="rect5102-4-9-1-5-4-6-9-4-4"
         style="fill:#ffffff;fill-opacity:1;stroke:none"
         ry="2.1897638" />
      <rect
         y="751.987"
         x="313.875"
         height="15.75"
         width="15.75"
         id="rect5102-42-8-8-1-8-7-7-0"
         style="fill:#ffffff;fill-opacity:1;stroke:none"
         ry="2.1897638" />
      <rect
         ry="2.1897638"
         y="781.237"
         x="372.37503"
         height="15.75"
         width="15.75"
         id="rect5102-4-7-9-6-1-6-6-7"
         style="fill:#ffffff;fill-opacity:1;stroke:none" />
      <rect
         ry="2.1897638"
         y="781.237"
         x="401.62503"
         height="15.75"
         width="15.75"
         id="rect5102-4-0-3-6-9-1-8-2-8"
         style="fill:#ffffff;fill-opacity:1;stroke:none" />
      <rect
         ry="2.1897638"
         y="781.237"
         x="430.87503"
         height="15.75"
         width="15.75"
         id="rect5102-4-9-4-6-2-1-9-8-8"
         style="fill:#ffffff;fill-opacity:1;stroke:none" />
      <rect
         ry="2.1897638"
         y="853.23694"
         x="343.12503"
         height="15.75"
         width="15.75"
         id="rect5102-42-3-1-0-78-3-5-0-4"
         style="fill:#ffffff;fill-opacity:1;stroke:none" />
      <rect
         ry="2.1897638"
         y="853.23694"
         x="372.37503"
         height="15.75"
         width="15.75"
         id="rect5102-4-08-4-3-3-3-7-5-5-1"
         style="fill:#ffffff;fill-opacity:1;stroke:none" />
      <rect
         ry="2.1897638"
         y="853.23694"
         x="401.62503"
         height="15.75"
         width="15.75"
         id="rect5102-4-0-8-5-7-1-0-5-6-6-9"
         style="fill:#ffffff;fill-opacity:1;stroke:none" />
      <rect
         ry="2.1897638"
         y="853.23694"
         x="430.87503"
         height="15.75"
         width="15.75"
         id="rect5102-4-9-1-9-4-4-42-1-3-6-1"
         style="fill:#ffffff;fill-opacity:1;stroke:none" />
      <rect
         ry="2.1897638"
         y="853.23694"
         x="313.875"
         height="15.75"
         width="15.75"
         id="rect5102-42-8-3-7-39-4-3-8-4-4"
         style="fill:#ffffff;fill-opacity:1;stroke:none" />
      <rect
         ry="2.1897638"
         y="853.23694"
         x="284.625"
         height="15.75"
         width="15.75"
         id="rect5102-42-8-3-7-3-8-9-4-4-9-0"
         style="fill:#ffffff;fill-opacity:1;stroke:none" />
      <g
         style="fill:#ffffff;fill-opacity:1;stroke:none"
         id="g5219-7-1-7-7-1-7-0-6-6-8"
         transform="translate(234.00005,42.750028)">
        <rect
           style="fill:#ffffff;fill-opacity:1;stroke:none"
           id="rect5102-4-9-1-9-4-2-8-4-5-9-4-8"
           width="15.75"
           height="15.75"
           x="196.875"
           y="839.737"
           ry="2.1897638" />
      </g>
      <rect
         ry="2.1897638"
         y="823.987"
         x="343.12503"
         height="15.75"
         width="15.75"
         id="rect5102-42-4-0-4-0-4-2-2"
         style="fill:#ffffff;fill-opacity:1;stroke:none" />
      <rect
         ry="2.1897638"
         y="823.987"
         x="372.37503"
         height="15.75"
         width="15.75"
         id="rect5102-4-08-9-4-3-5-1-0-4"
         style="fill:#ffffff;fill-opacity:1;stroke:none" />
      <rect
         ry="2.1897638"
         y="823.987"
         x="401.62503"
         height="15.75"
         width="15.75"
         id="rect5102-4-0-8-5-1-1-1-7-7-8"
         style="fill:#ffffff;fill-opacity:1;stroke:none" />
      <rect
         ry="2.1897638"
         y="823.987"
         x="430.87503"
         height="15.75"
         width="15.75"
         id="rect5102-4-9-1-9-3-25-7-3-2-5"
         style="fill:#ffffff;fill-opacity:1;stroke:none" />
      <rect
         ry="2.1897638"
         y="823.987"
         x="313.875"
         height="15.75"
         width="15.75"
         id="rect5102-42-8-6-3-3-5-8-5-2"
         style="fill:#ffffff;fill-opacity:1;stroke:none" />
      <g
         style="fill:#ffffff;fill-opacity:1;stroke:none"
         transform="translate(-173.47952,650.26828)"
         id="g5204-6-3-8-2">
        <path
           transform="matrix(1.4148516,0,0,1.4148516,361.8257,-25.701445)"
           d="m 105.75,95.625 c 0,0.62132 -0.50368,1.125 -1.125,1.125 -0.62132,0 -1.125,-0.50368 -1.125,-1.125 0,-0.62132 0.50368,-1.125 1.125,-1.125 0.62132,0 1.125,0.50368 1.125,1.125 z"
           sodipodi:ry="1.125"
           sodipodi:rx="1.125"
           sodipodi:cy="95.625"
           sodipodi:cx="104.625"
           id="path5504-2-4-6-0-8-0"
           style="fill:#ffffff;fill-opacity:1;stroke:none"
           sodipodi:type="arc" />
        <path
           transform="matrix(1.4148516,0,0,1.4148516,361.8257,75.548536)"
           d="m 105.75,95.625 c 0,0.62132 -0.50368,1.125 -1.125,1.125 -0.62132,0 -1.125,-0.50368 -1.125,-1.125 0,-0.62132 0.50368,-1.125 1.125,-1.125 0.62132,0 1.125,0.50368 1.125,1.125 z"
           sodipodi:ry="1.125"
           sodipodi:rx="1.125"
           sodipodi:cy="95.625"
           sodipodi:cx="104.625"
           id="path5504-4-4-8-8-8-8-0-4"
           style="fill:#ffffff;fill-opacity:1;stroke:none"
           sodipodi:type="arc" />
        <path
           transform="matrix(1.4148516,0,0,1.4148516,361.8257,46.298556)"
           d="m 105.75,95.625 c 0,0.62132 -0.50368,1.125 -1.125,1.125 -0.62132,0 -1.125,-0.50368 -1.125,-1.125 0,-0.62132 0.50368,-1.125 1.125,-1.125 0.62132,0 1.125,0.50368 1.125,1.125 z"
           sodipodi:ry="1.125"
           sodipodi:rx="1.125"
           sodipodi:cy="95.625"
           sodipodi:cx="104.625"
           id="path5504-4-8-6-8-2-5-25"
           style="fill:#ffffff;fill-opacity:1;stroke:none"
           sodipodi:type="arc" />
      </g>
      <g
         transform="translate(292.5,-191.25)"
         id="g3224">
        <path
           sodipodi:type="arc"
           style="fill:none;stroke:#ffffff;stroke-opacity:1"
           id="path5211-5-2-5-4"
           sodipodi:cx="17.500893"
           sodipodi:cy="1032.5632"
           sodipodi:rx="5.6568542"
           sodipodi:ry="5.6568542"
           d="m 23.157747,1032.5632 c 0,3.1242 -2.53266,5.6569 -5.656854,5.6569 -3.124195,0 -5.656855,-2.5327 -5.656855,-5.6569 0,-3.1242 2.53266,-5.6568 5.656855,-5.6568 3.124194,0 5.656854,2.5326 5.656854,5.6568 z"
           transform="matrix(0.62637411,0,0,0.62637411,-53.712106,464.09112)" />
        <path
           sodipodi:type="arc"
           style="fill:none;stroke:#ffffff;stroke-width:0.7265088;stroke-miterlimit:4;stroke-opacity:1;stroke-dasharray:none"
           id="path5211-8-6-1-4-6"
           sodipodi:cx="17.500893"
           sodipodi:cy="1032.5632"
           sodipodi:rx="5.6568542"
           sodipodi:ry="5.6568542"
           d="m 23.157747,1032.5632 c 0,3.1242 -2.53266,5.6569 -5.656854,5.6569 -3.124195,0 -5.656855,-2.5327 -5.656855,-5.6569 0,-3.1242 2.53266,-5.6568 5.656855,-5.6568 3.124194,0 5.656854,2.5326 5.656854,5.6568 z"
           transform="matrix(0.86325912,0,0,0.86325912,-57.857805,219.49237)" />
      </g>
      <g
         transform="translate(289.45683,-191.98317)"
         id="g3228">
        <path
           sodipodi:type="arc"
           style="fill:none;stroke:#ffffff;stroke-opacity:1"
           id="path5211-0-3-7-8-5-8-8"
           sodipodi:cx="17.500893"
           sodipodi:cy="1032.5632"
           sodipodi:rx="5.6568542"
           sodipodi:ry="5.6568542"
           d="m 23.157747,1032.5632 c 0,3.1242 -2.53266,5.6569 -5.656854,5.6569 -3.124195,0 -5.656855,-2.5327 -5.656855,-5.6569 0,-3.1242 2.53266,-5.6568 5.656855,-5.6568 3.124194,0 5.656854,2.5326 5.656854,5.6568 z"
           transform="matrix(0.62637411,0,0,0.62637411,-50.668954,228.5743)" />
        <path
           sodipodi:type="arc"
           style="fill:none;stroke:#ffffff;stroke-width:0.7265088;stroke-miterlimit:4;stroke-opacity:1;stroke-dasharray:none"
           id="path5211-8-2-2-3-2-9"
           sodipodi:cx="17.500893"
           sodipodi:cy="1032.5632"
           sodipodi:rx="5.6568542"
           sodipodi:ry="5.6568542"
           d="m 23.157747,1032.5632 c 0,3.1242 -2.53266,5.6569 -5.656854,5.6569 -3.124195,0 -5.656855,-2.5327 -5.656855,-5.6569 0,-3.1242 2.53266,-5.6568 5.656855,-5.6568 3.124194,0 5.656854,2.5326 5.656854,5.6568 z"
           transform="matrix(0.86325912,0,0,0.86325912,-54.814634,-16.024464)" />
      </g>
      <g
         transform="translate(295.54308,-191.98317)"
         id="g3232">
        <path
           sodipodi:type="arc"
           style="fill:none;stroke:#ffffff;stroke-opacity:1"
           id="path5211-0-3-2-8-8-1"
           sodipodi:cx="17.500893"
           sodipodi:cy="1032.5632"
           sodipodi:rx="5.6568542"
           sodipodi:ry="5.6568542"
           d="m 23.157747,1032.5632 c 0,3.1242 -2.53266,5.6569 -5.656854,5.6569 -3.124195,0 -5.656855,-2.5327 -5.656855,-5.6569 0,-3.1242 2.53266,-5.6568 5.656855,-5.6568 3.124194,0 5.656854,2.5326 5.656854,5.6568 z"
           transform="matrix(0.62637411,0,0,0.62637411,177.24481,228.5743)" />
        <path
           sodipodi:type="arc"
           style="fill:none;stroke:#ffffff;stroke-width:0.7265088;stroke-miterlimit:4;stroke-opacity:1;stroke-dasharray:none"
           id="path5211-8-2-8-3-3-8-4"
           sodipodi:cx="17.500893"
           sodipodi:cy="1032.5632"
           sodipodi:rx="5.6568542"
           sodipodi:ry="5.6568542"
           d="m 23.157747,1032.5632 c 0,3.1242 -2.53266,5.6569 -5.656854,5.6569 -3.124195,0 -5.656855,-2.5327 -5.656855,-5.6569 0,-3.1242 2.53266,-5.6568 5.656855,-5.6568 3.124194,0 5.656854,2.5326 5.656854,5.6568 z"
           transform="matrix(0.86325912,0,0,0.86325912,173.09911,-16.024464)" />
      </g>
      <g
         transform="translate(292.5,-191.25)"
         id="g3220">
        <path
           sodipodi:type="arc"
           style="fill:none;stroke:#ffffff;stroke-opacity:1"
           id="path5211-0-6-3-2-6"
           sodipodi:cx="17.500893"
           sodipodi:cy="1032.5632"
           sodipodi:rx="5.6568542"
           sodipodi:ry="5.6568542"
           d="m 23.157747,1032.5632 c 0,3.1242 -2.53266,5.6569 -5.656854,5.6569 -3.124195,0 -5.656855,-2.5327 -5.656855,-5.6569 0,-3.1242 2.53266,-5.6568 5.656855,-5.6568 3.124194,0 5.656854,2.5326 5.656854,5.6568 z"
           transform="matrix(0.62637411,0,0,0.62637411,180.28789,464.09112)" />
        <path
           sodipodi:type="arc"
           style="fill:none;stroke:#ffffff;stroke-width:0.7265088;stroke-miterlimit:4;stroke-opacity:1;stroke-dasharray:none"
           id="path5211-8-2-8-2-6-5-3-0"
           sodipodi:cx="17.500893"
           sodipodi:cy="1032.5632"
           sodipodi:rx="5.6568542"
           sodipodi:ry="5.6568542"
           d="m 23.157747,1032.5632 c 0,3.1242 -2.53266,5.6569 -5.656854,5.6569 -3.124195,0 -5.656855,-2.5327 -5.656855,-5.6569 0,-3.1242 2.53266,-5.6568 5.656855,-5.6568 3.124194,0 5.656854,2.5326 5.656854,5.6568 z"
           transform="matrix(0.86325912,0,0,0.86325912,176.14219,219.49237)" />
      </g>
      <path
         transform="matrix(1.8791224,0,0,1.8791224,332.36027,-1256.5723)"
         d="m 23.157747,1032.5632 c 0,3.1242 -2.53266,5.6569 -5.656854,5.6569 -3.124195,0 -5.656855,-2.5327 -5.656855,-5.6569 0,-3.1242 2.53266,-5.6568 5.656855,-5.6568 3.124194,0 5.656854,2.5326 5.656854,5.6568 z"
         sodipodi:ry="5.6568542"
         sodipodi:rx="5.6568542"
         sodipodi:cy="1032.5632"
         sodipodi:cx="17.500893"
         id="path5211-8-2-8-3-3-8-4-2"
         style="fill:#ffffff;fill-opacity:1;stroke:none"
         sodipodi:type="arc" />
    </g>
  </g>
</svg>
